<svg width="30" height="30" viewBox="0 0 30 30" fill="none" xmlns="http://www.w3.org/2000/svg">
<path d="M21.25 2.5H8.75C5.29822 2.5 2.5 5.29822 2.5 8.75V21.25C2.5 24.7018 5.29822 27.5 8.75 27.5H21.25C24.7018 27.5 27.5 24.7018 27.5 21.25V8.75C27.5 5.29822 24.7018 2.5 21.25 2.5Z" stroke="black" stroke-width="2" stroke-linecap="round" stroke-linejoin="round"/>
<path d="M19.9996 14.2125C20.1539 15.2528 19.9762 16.3153 19.4918 17.2488C19.0075 18.1823 18.2411 18.9393 17.3017 19.4121C16.3623 19.8849 15.2977 20.0495 14.2594 19.8824C13.221 19.7153 12.2618 19.2251 11.5182 18.4815C10.7745 17.7378 10.2843 16.7786 10.1172 15.7403C9.95014 14.702 10.1147 13.6374 10.5875 12.698C11.0604 11.7586 11.8174 10.9922 12.7509 10.5078C13.6844 10.0234 14.7468 9.84575 15.7871 10C16.8483 10.1574 17.8307 10.6518 18.5893 11.4104C19.3478 12.1689 19.8423 13.1514 19.9996 14.2125Z" stroke="black" stroke-width="2" stroke-linecap="round" stroke-linejoin="round"/>
<path d="M21.875 8.125H21.8875" stroke="black" stroke-width="2" stroke-linecap="round" stroke-linejoin="round"/>
</svg>
